<svg xmlns="http://www.w3.org/2000/svg" viewBox="0 0 927.85 113.62"><defs><style>.cls-1{fill:#e8f4f3;}.cls-2{fill:#cce8f3;}.cls-3{fill:#96d1e7;}</style></defs><title>snow-6</title><g id="Layer_2" data-name="Layer 2"><g id="Layer_1-2" data-name="Layer 1"><path class="cls-1" d="M927.85,55.23c-.1,14.57-7.53,27.43-14.06,28-4.12.3-5.13-4.43-15.68-11.86-3.21-2.31-13.46-9.55-26.22-12.26-.3-.1-.51-.1-.81-.2-11.35-2.21-30.44-2-41.9,7.54h-.1a4.35,4.35,0,0,0-.7.6c-4.52,4-4.52,6.93-9.44,19.19-3.52,8.84-3.92,13.76-7.44,17.38-3.92,3.92-11.25,7.74-17.18,5.53C788,106.88,789.6,100,781.56,91.3,775.33,84.57,768,82,761.66,79.55c-11.15-4-17.68-6.43-23.11-3.32-5.82,3.42-6.43,10.45-15.57,15.27a9.68,9.68,0,0,1-2.61.91c-8,1.71-16.48-4-25.72-10.25C682,73.52,682.89,69.5,674.55,66.49c-10-3.42-23.11-1.61-31.45,3.81-3.82,2.52-2.91,3.42-14.37,15.58-9.44,10.05-11.35,10.85-13.16,10.85-6.33-.1-6.53-9.35-18.29-16.18-2-1.2-11.35-6.63-21.3-4.82-7.63,1.31-7.93,5.43-13.86,5.83-9.45.7-18-9.25-23.82-16.08-10-11.75-7.33-15.17-13.76-19.29a.1.1,0,0,0-.1-.1c-11.26-7.34-31.85-5.33-43.91,3.21-5.22,3.72-5.63,6.33-9.95,13.47-1.5,2.51-3.51,5.62-6.43,9.64-5.22,7.24-18.49,25.22-26.32,23.21-5.23-1.3-3.42-10.14-10.75-13-5.93-2.31-9.65,2.61-16.88,1.11-8.54-1.81-8.64-9.55-18.29-16.18-9.14-6.33-20.2-6.83-24.42-6.93-11.75-.5-17.28,3.41-40.89,12.86-21.2,8.54-31.85,12.76-38.28,13-16.38.3-18.19-7.54-45.22-11.35-12.36-1.71-24.61-3.22-32,2.71-2.61,2.11-4.72,7.23-8.74,17.18-5.43,13.46-5.83,17.38-9.45,18.39-5.12,1.4-12.55-4.52-16.27-9.15-7.94-9.94-3.62-19-12-23.71-2.61-1.5-5-1.71-8.84-2.21-12.36-1.4-17.18,4.32-23.21,2.21s-4-8.54-10.05-16.68c-5.22-7.13-16.68-15.87-27-15.07C80.13,50,81.13,71.71,57.22,82.66c-3.72,1.71-19.49,8.44-33.86,3.22C5.17,79.45-3.57,56.64,1.36,40.16,5.07,27.9,16.53,18.66,30.59,12.23c15.28-7.14,33.77-11,48.64-12,37.27-2.51,44.41,13.06,102.38,20,28.54,3.31,50.14,2.31,77.87,1C306.1,19.16,313,14,365.58,8.41c53.26-5.73,89.53-9.55,135.65-3.22,38.68,5.23,38,11.36,84.8,17.19,37.88,4.72,61.89,7.63,94.15,3.81,32.65-4,47.12-11.75,77.87-7.53,15.67,2.11,19,5,35.77,5.93,15.57.7,21.6-1.41,57.87-5.93,33.46-4.32,42.2-4.22,50.14-1.11a6.68,6.68,0,0,1,1.31.51,42,42,0,0,1,20.69,19.39A39.08,39.08,0,0,1,927.85,55.23Z"/><path class="cls-2" d="M927.85,55.23c-.1,14.57-7.53,27.43-14.06,28-4.12.3-5.13-4.43-15.68-11.86-3.21-2.31-13.46-9.55-26.22-12.26-.3-.1-.51-.1-.81-.2-11.35-2.21-30.44-2-41.9,7.54h-.1a4.35,4.35,0,0,0-.7.6c-4.52,4-4.52,6.93-9.44,19.19-3.52,8.84-3.92,13.76-7.44,17.38-3.92,3.92-11.25,7.74-17.18,5.53C788,106.88,789.6,100,781.56,91.3,775.33,84.57,768,82,761.66,79.55c-11.15-4-17.68-6.43-23.11-3.32-5.82,3.42-6.43,10.45-15.57,15.27a9.68,9.68,0,0,1-2.61.91c-8,1.71-16.48-4-25.72-10.25C682,73.52,682.89,69.5,674.55,66.49c-10-3.42-23.11-1.61-31.45,3.81-3.82,2.52-2.91,3.42-14.37,15.58-9.44,10.05-11.35,10.85-13.16,10.85-6.33-.1-6.53-9.35-18.29-16.18-2-1.2-11.35-6.63-21.3-4.82-7.63,1.31-7.93,5.43-13.86,5.83-9.45.7-18-9.25-23.82-16.08-10-11.75-7.33-15.17-13.76-19.29a.1.1,0,0,0-.1-.1c-11.26-7.34-31.85-5.33-43.91,3.21-5.22,3.72-5.63,6.33-9.95,13.47-1.5,2.51-3.51,5.62-6.43,9.64-5.22,7.24-18.49,25.22-26.32,23.21-5.23-1.3-3.42-10.14-10.75-13-5.93-2.31-9.65,2.61-16.88,1.11-8.54-1.81-8.64-9.55-18.29-16.18-9.14-6.33-20.2-6.83-24.42-6.93-11.75-.5-17.28,3.41-40.89,12.86-21.2,8.54-31.85,12.76-38.28,13-16.38.3-18.19-7.54-45.22-11.35-12.36-1.71-24.61-3.22-32,2.71-2.61,2.11-4.72,7.23-8.74,17.18-5.43,13.46-5.83,17.38-9.45,18.39-5.12,1.4-12.55-4.52-16.27-9.15-7.94-9.94-3.62-19-12-23.71-2.61-1.5-5-1.71-8.84-2.21-12.36-1.4-17.18,4.32-23.21,2.21s-4-8.54-10.05-16.68c-5.22-7.13-16.68-15.87-27-15.07C80.13,50,81.13,71.71,57.22,82.66c-3.72,1.71-19.49,8.44-33.86,3.22C5.17,79.45-3.57,56.64,1.36,40.16,5.07,27.9,16.53,18.66,30.59,12.23a15.26,15.26,0,0,0-.4,8.74c3.12,11.15,19.5,15.47,22.71,16.38,19.09,5,28.23-6.23,48.93-8.84,24.82-3.12,30.25,10.65,69,20.09C194,54.23,211.25,54,240,53.62c40.69-.5,42-6.23,85.4-8.84,46-2.61,49.44,3.52,96.66,0,31.85-2.31,30.35-5.12,64.11-7.43a619.74,619.74,0,0,1,85.4,0,686.29,686.29,0,0,1,80.38,10c39.69,7.24,47.23,12.26,76.57,13.77a281.8,281.8,0,0,0,55.26-2.51c26.73-4,26.12-8.14,47.83-11.26,43-6.33,66.91,6.84,74.15-4.72,3.82-5.93-1.41-11.65-3.92-25.12a6.68,6.68,0,0,1,1.31.51,42,42,0,0,1,20.69,19.39A39.08,39.08,0,0,1,927.85,55.23Z"/><path class="cls-3" d="M443.45,64.88a145.66,145.66,0,0,0,27.13-2.11c-1.5,2.51-3.51,5.62-6.43,9.64-5.22,7.24-18.49,25.22-26.32,23.21-5.23-1.3-3.42-10.14-10.75-13-5.93-2.31-9.65,2.61-16.88,1.11-8.54-1.81-8.64-9.55-18.29-16.18-9.14-6.33-20.2-6.83-24.42-6.93-11.75-.5-17.28,3.41-40.89,12.86-21.2,8.54-31.85,12.76-38.28,13-16.38.3-18.19-7.54-45.22-11.35-12.36-1.71-24.61-3.22-32,2.71-2.61,2.11-4.72,7.23-8.74,17.18-5.43,13.46-5.83,17.38-9.45,18.39-5.12,1.4-12.55-4.52-16.27-9.15-7.94-9.94-3.62-19-12-23.71-2.61-1.5-5-1.71-8.84-2.21-12.36-1.4-17.18,4.32-23.21,2.21s-4-8.54-10.05-16.68c-5.22-7.13-16.68-15.87-27-15.07C80.13,50,81.13,71.71,57.22,82.66c-3.72,1.71-19.49,8.44-33.86,3.22C5.17,79.45-3.57,56.64,1.36,40.16c9.34,2.21,10.55,9.55,25.12,16,3.71,1.6,11.85,5.22,21.4,5C64.05,60.86,67.77,49.91,83,44.78c4.83-1.61,12.86-3.21,54,8.84,39.69,11.66,33.86,13.57,46.52,15.08,32.15,3.81,40.39-12.46,74-7.54,19.7,2.81,18.19,8.54,33.86,8.74,27.63.4,32.76-17.28,60.29-18.79,15.77-.8,16,4.83,49,10C402.66,61.46,423.86,64.78,443.45,64.88Z"/><path class="cls-3" d="M805.17,67.49c8.94,0,17-.4,23.91-1a4.35,4.35,0,0,0-.7.6c-4.52,4-4.52,6.93-9.44,19.19-3.52,8.84-3.92,13.76-7.44,17.38-3.92,3.92-11.25,7.74-17.18,5.53C788,106.88,789.6,100,781.56,91.3,775.33,84.57,768,82,761.66,79.55c-11.15-4-17.68-6.43-23.11-3.32-5.82,3.42-6.43,10.45-15.57,15.27a9.68,9.68,0,0,1-2.61.91c-8,1.71-16.48-4-25.72-10.25C682,73.52,682.89,69.5,674.55,66.49c-10-3.42-23.11-1.61-31.45,3.81-3.82,2.52-2.91,3.42-14.37,15.58-9.44,10.05-11.35,10.85-13.16,10.85-6.33-.1-6.53-9.35-18.29-16.18-2-1.2-11.35-6.63-21.3-4.82-7.63,1.31-7.93,5.43-13.86,5.83-9.45.7-18-9.25-23.82-16.08-10-11.75-7.33-15.17-13.76-19.29a59.29,59.29,0,0,1,29.44-.1c21,4.92,21.1,14.37,45.21,17.58,22.11,3,25.73-4.42,52.75-3.82,29.85.81,30.75,10.05,60.29,10.05,21.6.1,21.9-4.82,49-5C781.36,64.78,782.46,67.49,805.17,67.49Z"/><path class="cls-3" d="M927.85,55.23c-.1,14.57-7.53,27.43-14.06,28-4.12.3-5.13-4.43-15.68-11.86-3.21-2.31-13.46-9.55-26.22-12.26,6.33-1.91,10.65-3.42,20-4.32C897.71,54.33,915.19,52.62,927.85,55.23Z"/></g></g></svg>