<svg xmlns="http://www.w3.org/2000/svg" viewBox="0 0 927.85 24.19"><defs><style>.cls-1{fill:#e8f4f3;}</style></defs><title>snow-1</title><g id="Layer_2" data-name="Layer 2"><g id="Layer_1-2" data-name="Layer 1"><path class="cls-1" d="M927.85,11.76c-.1,3.1-7.53,5.84-14.06,6-4.12.06-5.13-.94-15.68-2.52a244.94,244.94,0,0,0-26.22-2.61c-.3,0-.51,0-.81,0-11.35-.47-30.44-.43-41.9,1.61h-.1a6,6,0,0,0-.7.13c-4.52.85-4.52,1.47-9.44,4.08-3.52,1.89-3.92,2.93-7.44,3.7a68.22,68.22,0,0,1-17.18,1.18c-6.33-.49-4.72-1.95-12.76-3.81-6.23-1.43-13.57-2-19.9-2.5-11.15-.86-17.68-1.37-23.11-.71-5.82.73-6.43,2.23-15.57,3.25-.8.09-1.61.15-2.61.2-8,.36-16.48-.86-25.72-2.18-12.66-1.84-11.76-2.7-20.1-3.34A171.62,171.62,0,0,0,643.1,15c-3.82.54-2.91.73-14.37,3.32-9.44,2.14-11.35,2.31-13.16,2.31-6.33,0-6.53-2-18.29-3.45a137.48,137.48,0,0,0-21.3-1c-7.63.27-7.93,1.15-13.86,1.24-9.45.15-18-2-23.82-3.43-10-2.5-7.33-3.23-13.76-4.1,0,0-.1,0-.1,0-11.26-1.56-31.85-1.13-43.91.69-5.22.79-5.63,1.35-9.95,2.87-1.5.53-3.51,1.19-6.43,2.05-5.22,1.54-18.49,5.37-26.32,4.94-5.23-.28-3.42-2.16-10.75-2.76-5.93-.49-9.65.56-16.88.24-8.54-.39-8.64-2-18.29-3.45a189,189,0,0,0-24.42-1.47c-11.75-.11-17.28.72-40.89,2.74-21.2,1.81-31.85,2.71-38.28,2.76-16.38.06-18.19-1.61-45.22-2.42-12.36-.37-24.61-.69-32,.58-2.61.44-4.72,1.54-8.74,3.65-5.43,2.87-5.83,3.71-9.45,3.92-5.12.3-12.55-1-16.27-1.95-7.94-2.12-3.62-4-12-5.05-2.61-.32-5-.36-8.84-.47-12.36-.3-17.18.92-23.21.47s-4-1.82-10.05-3.55a106.65,106.65,0,0,0-27-3.21c-15.37.26-14.37,4.88-38.28,7.21-3.72.37-19.49,1.8-33.86.69-18.19-1.37-26.93-6.23-22-9.74C5.07,5.94,16.53,4,30.59,2.6,45.87,1.08,64.36.27,79.23.06c37.27-.54,44.41,2.78,102.38,4.26,28.54.7,50.14.49,77.87.21C306.1,4.08,313,3,365.58,1.79c53.26-1.22,89.53-2,135.65-.68,38.68,1.11,38,2.41,84.8,3.65,37.88,1,61.89,1.63,94.15.82C712.83,4.72,727.3,3.07,758.05,4c15.67.45,19,1.07,35.77,1.27,15.57.15,21.6-.3,57.87-1.27,33.46-.92,42.2-.9,50.14-.23.4,0,.9.06,1.31.1C916.5,5.09,922.33,7.33,923.83,8,926.75,9.19,927.85,10.52,927.85,11.76Z"/></g></g></svg>