<svg xmlns="http://www.w3.org/2000/svg" viewBox="0 0 927.85 48.68"><defs><style>.cls-1{fill:#e8f4f3;}.cls-2{fill:#c0e7f2;}</style></defs><title>snow-3</title><g id="Layer_2" data-name="Layer 2"><g id="Layer_1-2" data-name="Layer 1"><path class="cls-1" d="M927.85,23.66c-.1,6.25-7.53,11.76-14.06,12-4.12.13-5.13-1.89-15.68-5.08a130.2,130.2,0,0,0-26.22-5.25c-.3,0-.51,0-.81-.08-11.35-1-30.44-.86-41.9,3.23h-.1a5.43,5.43,0,0,0-.7.25c-4.52,1.73-4.52,3-9.44,8.23-3.52,3.78-3.92,5.89-7.44,7.44-3.92,1.68-11.25,3.32-17.18,2.37-6.33-1-4.72-3.92-12.76-7.66-6.23-2.89-13.57-4-19.9-5-11.15-1.72-17.68-2.75-23.11-1.42-5.82,1.46-6.43,4.48-15.57,6.54a18,18,0,0,1-2.61.39c-8,.73-16.48-1.72-25.72-4.39-12.66-3.7-11.76-5.42-20.1-6.71-10-1.47-23.11-.69-31.45,1.63-3.82,1.08-2.91,1.46-14.37,6.67-9.44,4.31-11.35,4.65-13.16,4.65-6.33,0-6.53-4-18.29-6.93A69.43,69.43,0,0,0,576,32.45c-7.63.56-7.93,2.32-13.86,2.49-9.45.3-18-4-23.82-6.89-10-5-7.33-6.5-13.76-8.26,0,0-.1,0-.1,0-11.26-3.15-31.85-2.29-43.91,1.37-5.22,1.6-5.63,2.72-9.95,5.77-1.5,1.08-3.51,2.41-6.43,4.14-5.22,3.09-18.49,10.8-26.32,9.94-5.23-.56-3.42-4.35-10.75-5.55-5.93-1-9.65,1.12-16.88.47-8.54-.78-8.64-4.09-18.29-6.93-9.14-2.71-20.2-2.93-24.42-3-11.75-.22-17.28,1.46-40.89,5.51-21.2,3.66-31.85,5.47-38.28,5.55-16.38.13-18.19-3.23-45.22-4.86-12.36-.73-24.61-1.38-32,1.16-2.61.9-4.72,3.1-8.74,7.36-5.43,5.77-5.83,7.45-9.45,7.88-5.12.6-12.55-1.94-16.27-3.92-7.94-4.26-3.62-8.13-12-10.16a47.83,47.83,0,0,0-8.84-.95c-12.36-.6-17.18,1.86-23.21.95s-4-3.66-10.05-7.14c-5.22-3.06-16.68-6.81-27-6.46-15.37.52-14.37,9.81-38.28,14.51-3.72.73-19.49,3.61-33.86,1.37C5.17,34-3.57,24.27,1.36,17.21,5.07,12,16.53,8,30.59,5.24,45.87,2.18,64.36.55,79.23.12,116.5-1,123.64,5.71,181.61,8.68c28.54,1.42,50.14,1,77.87.43C306.1,8.21,313,6,365.58,3.6c53.26-2.45,89.53-4.09,135.65-1.37,38.68,2.23,38,4.86,84.8,7.36,37.88,2,61.89,3.27,94.15,1.63,32.65-1.72,47.12-5,77.87-3.23,15.67.91,19,2.16,35.77,2.54,15.57.31,21.6-.6,57.87-2.54,33.46-1.85,42.2-1.8,50.14-.47a12.35,12.35,0,0,1,1.31.22c13.36,2.49,19.19,7,20.69,8.3C926.75,18.5,927.85,21.17,927.85,23.66Z"/><path class="cls-2" d="M443.45,27.8c10.35,0,19.3-.3,27.13-.91-1.5,1.08-3.51,2.41-6.43,4.14-5.22,3.09-18.49,10.8-26.32,9.94-5.23-.56-3.42-4.35-10.75-5.55-5.93-1-9.65,1.12-16.88.47-8.54-.78-8.64-4.09-18.29-6.93-9.14-2.71-20.2-2.93-24.42-3-11.75-.22-17.28,1.46-40.89,5.51-21.2,3.66-31.85,5.47-38.28,5.55-16.38.13-18.19-3.23-45.22-4.86-12.36-.73-24.61-1.38-32,1.16-2.61.9-4.72,3.1-8.74,7.36-5.43,5.77-5.83,7.45-9.45,7.88-5.12.6-12.55-1.94-16.27-3.92-7.94-4.26-3.62-8.13-12-10.16a47.83,47.83,0,0,0-8.84-.95c-12.36-.6-17.18,1.86-23.21.95s-4-3.66-10.05-7.14c-5.22-3.06-16.68-6.81-27-6.46-15.37.52-14.37,9.81-38.28,14.51-3.72.73-19.49,3.61-33.86,1.37C5.17,34-3.57,24.27,1.36,17.21c9.34.94,10.55,4.09,25.12,6.84a109.13,109.13,0,0,0,21.4,2.15c16.17-.13,19.89-4.82,35.16-7,4.83-.69,12.86-1.38,54,3.78,39.69,5,33.86,5.82,46.52,6.46,32.15,1.64,40.39-5.34,74-3.23,19.7,1.21,18.19,3.66,33.86,3.75,27.63.17,32.76-7.41,60.29-8,15.77-.35,16,2.07,49,4.3C402.66,26.33,423.86,27.75,443.45,27.8Z"/><path class="cls-2" d="M805.17,28.92c8.94,0,17-.18,23.91-.43a5.43,5.43,0,0,0-.7.25c-4.52,1.73-4.52,3-9.44,8.23-3.52,3.78-3.92,5.89-7.44,7.44-3.92,1.68-11.25,3.32-17.18,2.37-6.33-1-4.72-3.92-12.76-7.66-6.23-2.89-13.57-4-19.9-5-11.15-1.72-17.68-2.75-23.11-1.42-5.82,1.46-6.43,4.48-15.57,6.54a18,18,0,0,1-2.61.39c-8,.73-16.48-1.72-25.72-4.39-12.66-3.7-11.76-5.42-20.1-6.71-10-1.47-23.11-.69-31.45,1.63-3.82,1.08-2.91,1.46-14.37,6.67-9.44,4.31-11.35,4.65-13.16,4.65-6.33,0-6.53-4-18.29-6.93A69.43,69.43,0,0,0,576,32.45c-7.63.56-7.93,2.32-13.86,2.49-9.45.3-18-4-23.82-6.89-10-5-7.33-6.5-13.76-8.26a135.84,135.84,0,0,1,29.44,0c21,2.11,21.1,6.15,45.21,7.53,22.11,1.29,25.73-1.89,52.75-1.64C681.79,26,682.69,30,712.23,30c21.6,0,21.9-2.07,49-2.15C781.36,27.75,782.46,28.92,805.17,28.92Z"/><path class="cls-2" d="M927.85,23.66c-.1,6.25-7.53,11.76-14.06,12-4.12.13-5.13-1.89-15.68-5.08a130.2,130.2,0,0,0-26.22-5.25,188.22,188.22,0,0,1,20-1.85C897.71,23.28,915.19,22.54,927.85,23.66Z"/></g></g></svg>