<svg xmlns="http://www.w3.org/2000/svg" viewBox="0 0 927.85 69.13"><defs><style>.cls-1{fill:#e8f4f3;}.cls-2{fill:#c0e7f2;}</style></defs><title>snow-4</title><g id="Layer_2" data-name="Layer 2"><g id="Layer_1-2" data-name="Layer 1"><path class="cls-1" d="M927.85,33.61c-.1,8.86-7.53,16.69-14.06,17-4.12.19-5.13-2.69-15.68-7.21A97.74,97.74,0,0,0,871.89,36c-.3-.06-.51-.06-.81-.12-11.35-1.35-30.44-1.22-41.9,4.58h-.1a5.48,5.48,0,0,0-.7.37c-4.52,2.45-4.52,4.22-9.44,11.68-3.52,5.38-3.92,8.37-7.44,10.57-3.92,2.39-11.25,4.71-17.18,3.37C788,65,789.6,60.87,781.56,55.56c-6.23-4.1-13.57-5.69-19.9-7.16-11.15-2.44-17.68-3.91-23.11-2-5.82,2.08-6.43,6.36-15.57,9.3a14.94,14.94,0,0,1-2.61.55c-8,1-16.48-2.45-25.72-6.24-12.66-5.26-11.76-7.7-20.1-9.54-10-2.07-23.11-1-31.45,2.33-3.82,1.53-2.91,2.08-14.37,9.47-9.44,6.12-11.35,6.61-13.16,6.61-6.33-.06-6.53-5.69-18.29-9.85-2-.73-11.35-4-21.3-2.93-7.63.79-7.93,3.3-13.86,3.54-9.45.43-18-5.62-23.82-9.78-10-7.15-7.33-9.23-13.76-11.74,0-.06-.1-.06-.1-.06-11.26-4.46-31.85-3.24-43.91,2-5.22,2.26-5.63,3.85-9.95,8.19a86.8,86.8,0,0,1-6.43,5.87c-5.22,4.4-18.49,15.35-26.32,14.12-5.23-.79-3.42-6.17-10.75-7.88-5.93-1.41-9.65,1.59-16.88.67-8.54-1.1-8.64-5.81-18.29-9.84-9.14-3.85-20.2-4.16-24.42-4.22-11.75-.31-17.28,2.08-40.89,7.82-21.2,5.2-31.85,7.77-38.28,7.89-16.38.18-18.19-4.58-45.22-6.91-12.36-1-24.61-2-32,1.65-2.61,1.29-4.72,4.4-8.74,10.46C196.88,66,196.48,68.39,192.86,69c-5.12.85-12.55-2.76-16.27-5.57-7.94-6-3.62-11.55-12-14.43-2.61-.91-5-1-8.84-1.34-12.36-.86-17.18,2.63-23.21,1.34s-4-5.19-10.05-10.15c-5.22-4.34-16.68-9.65-27-9.17-15.37.74-14.37,13.94-38.28,20.61-3.72,1-19.49,5.13-33.86,2C5.17,48.34-3.57,34.46,1.36,24.44,5.07,17,16.53,11.35,30.59,7.44,45.87,3.1,64.36.78,79.23.17c37.27-1.53,44.41,7.94,102.38,12.16,28.54,2,50.14,1.41,77.87.61,46.62-1.28,53.56-4.4,106.1-7.82,53.26-3.49,89.53-5.81,135.65-2,38.68,3.18,38,6.91,84.8,10.46,37.88,2.87,61.89,4.64,94.15,2.32,32.65-2.45,47.12-7.15,77.87-4.59,15.67,1.29,19,3.06,35.77,3.61,15.57.43,21.6-.86,57.87-3.61,33.46-2.63,42.2-2.56,50.14-.67a9.19,9.19,0,0,1,1.31.31c13.36,3.54,19.19,10,20.69,11.8A16.54,16.54,0,0,1,927.85,33.61Z"/><path class="cls-2" d="M443.45,39.48a235.84,235.84,0,0,0,27.13-1.29,86.8,86.8,0,0,1-6.43,5.87c-5.22,4.4-18.49,15.35-26.32,14.12-5.23-.79-3.42-6.17-10.75-7.88-5.93-1.41-9.65,1.59-16.88.67-8.54-1.1-8.64-5.81-18.29-9.84-9.14-3.85-20.2-4.16-24.42-4.22-11.75-.31-17.28,2.08-40.89,7.82-21.2,5.2-31.85,7.77-38.28,7.89-16.38.18-18.19-4.58-45.22-6.91-12.36-1-24.61-2-32,1.65-2.61,1.29-4.72,4.4-8.74,10.46C196.88,66,196.48,68.39,192.86,69c-5.12.85-12.55-2.76-16.27-5.57-7.94-6-3.62-11.55-12-14.43-2.61-.91-5-1-8.84-1.34-12.36-.86-17.18,2.63-23.21,1.34s-4-5.19-10.05-10.15c-5.22-4.34-16.68-9.65-27-9.17-15.37.74-14.37,13.94-38.28,20.61-3.72,1-19.49,5.13-33.86,2C5.17,48.34-3.57,34.46,1.36,24.44c9.34,1.34,10.55,5.8,25.12,9.72a78.3,78.3,0,0,0,21.4,3.05C64.05,37,67.77,30.37,83,27.25c4.83-1,12.86-2,54,5.38,39.69,7.09,33.86,8.25,46.52,9.17,32.15,2.32,40.39-7.58,74-4.59,19.7,1.72,18.19,5.2,33.86,5.32,27.63.25,32.76-10.51,60.29-11.43,15.77-.49,16,2.93,49,6.11C402.66,37.4,423.86,39.41,443.45,39.48Z"/><path class="cls-2" d="M805.17,41.07c8.94,0,17-.25,23.91-.62a5.48,5.48,0,0,0-.7.37c-4.52,2.45-4.52,4.22-9.44,11.68-3.52,5.38-3.92,8.37-7.44,10.57-3.92,2.39-11.25,4.71-17.18,3.37C788,65,789.6,60.87,781.56,55.56c-6.23-4.1-13.57-5.69-19.9-7.16-11.15-2.44-17.68-3.91-23.11-2-5.82,2.08-6.43,6.36-15.57,9.3a14.94,14.94,0,0,1-2.61.55c-8,1-16.48-2.45-25.72-6.24-12.66-5.26-11.76-7.7-20.1-9.54-10-2.07-23.11-1-31.45,2.33-3.82,1.53-2.91,2.08-14.37,9.47-9.44,6.12-11.35,6.61-13.16,6.61-6.33-.06-6.53-5.69-18.29-9.85-2-.73-11.35-4-21.3-2.93-7.63.79-7.93,3.3-13.86,3.54-9.45.43-18-5.62-23.82-9.78-10-7.15-7.33-9.23-13.76-11.74A96.59,96.59,0,0,1,554,28c21,3,21.1,8.75,45.21,10.7,22.11,1.84,25.73-2.69,52.75-2.32,29.85.49,30.75,6.11,60.29,6.11,21.6.06,21.9-2.93,49-3.05C781.36,39.41,782.46,41.07,805.17,41.07Z"/><path class="cls-2" d="M927.85,33.61c-.1,8.86-7.53,16.69-14.06,17-4.12.19-5.13-2.69-15.68-7.21A97.74,97.74,0,0,0,871.89,36a134.46,134.46,0,0,1,20-2.63C897.71,33.06,915.19,32,927.85,33.61Z"/></g></g></svg>